<svg xmlns="http://www.w3.org/2000/svg" width="200" height="200" fill="none" viewBox="0 0 200 200">
<!-- SVG created with Arrow, by QuiverAI (https://quiver.ai) -->
  <path d="m104.6 15.92-0.16-0.03h0.01l-0.06-0.01h0.07l0.14-0.01c33.42-1.15 51.49 17.24 60.74 34.27 6.95 12.9 8.85 31.7 3.79 47.8l-4.44 15.96c-10.73-22.61-31.8-31.17-61.03-37.12l-0.44-0.12 0.46-0.13c7.39-2.05 13.77-2.91 20.26-7.76 8.05-5.93 13.11-13.72 12.82-22.56-0.53-14.52-12.03-27.35-32.16-30.29z" fill="#6F0B05"/>
  <path d="m136.9 28.39c12.58 7.37 23.98 21.37 28.14 34.62 1.19 4.45-1.28 10.94-4.6 11.97 0.66-4.21-0.98-8.42-2.01-13.3-2.14 6.23-6.51 12.08-11.02 15.52 0.78-5.42-0.51-10.84-2.53-16.7-1.86 3.88-7.52 8.28-15.86 11.31 10.15-7.85 17.31-19.79 7.88-43.42z" fill="#E8CECD"/>
  <path d="m123.4 76.05c14.11 3.06 29.71 12.97 40.21 25.74 5.71-13.68 5.16-29.31 0.45-40.77 1.46 7.09-1.86 12.16-3.95 13.69 0.57-4-1.1-7.73-1.96-12.87-2.22 5.88-6.12 11.14-14.2 16.99l2.18 1.94-2.81 3.14c-4.86-3.28-11.95-5.88-19.92-7.86z" fill="url(#paint0_linear_121_12182)"/>
  <path d="m104.7 194.1c-35.5 2.28-60.81-19.32-72.53-43.77-10.07-22.31-6.68-43.02 2.67-64.3 4.82 11.91 11.33 21.14 22.32 27.75 14.3 8.85 19 14.47 26.78 31.83 5.46 12.22 13.13 17.54 23.53 16.63 10.42-1.48 16.35-10.04 17.12-18.24 0.45-8.76-5.63-15.66-15.69-19.11-10.07-3.44-27.1-6.07-38.87-12.06-18.97-9.71-29.6-23.66-30.37-43.6 0.26-12.73 5.53-25.2 15.13-34.65 3.05-10.26 6.87-20.28 20.15-29.57l3.83 16.86c3.22-5.63 8.33-9.51 14.41-13.25l-0.77 17.51c4.85 2.91 7.18 5.64 9.2 10.66 2.02 4.45 9.51 7.96 17.63 10.62 1.65 0.61 1.78 1.34 1.42 2.32-3.39 8.89-10.89 13.24-19.76 12.42-8.21-0.76-17.31-0.09-17.37 8.07 0.52 6.93 7.68 10.77 23.16 14.85 26 6 42 14.22 51.43 33.08 12.39 26.54-2.42 55.77-27.13 69.07-8.15 4.45-16.68 6.5-26.29 6.88z" fill="#6F0B05"/>
  <path d="m110 49.11c-7.89-2.18-11.79-7.34-14.07-13.04-2.58-5.25-13.21-8.22-19.35-8.65l-4.15-14.26c-7.16 7.37-12.29 17.83-14.56 25.06l-1.21-0.09-0.62 0.99c-7.36 7.97-11.42 18.42-11.33 29.7 0.46 15.46 8.45 28.36 22.62 36.7 5.8 3.59 10.75 4.79 16.85 6.16-9.25-6.67-15.94-16.7-15.55-26.85 0.77-14.42 12.08-26.52 26.47-27.62 7.03 0.48 13.83-0.13 17.15-3.57l-1.07-2.46-1.18-2.07z" fill="url(#paint1_linear_121_12182)"/>
  <path d="m57.67 36.86c-0.46 3-0.12 7.8 2.52 10.58-3.26-1.08-4.58-3.77-5.03-6.28-5.88 6.55-11.01 16.55-10.75 27.32 0.32 9.32 3.5 19.5 10.43 25.99-9.6-14.29-1.75-31.56 10.22-37.92l1.65-0.54c-4.73-0.63-8.7 1-13.56 2.91 5.33-6.77 13.57-10.77 25.02-10.64 11.31-0.33 16.97 2.45 25.97 3.67 3.32 0.33 5.85-0.47 7.07-1.41l-1.1-1.89c-6.93-2.21-11.79-6.49-13.87-11.63-2.58-5.62-10.94-9.04-19.53-9.64l-4-13.68c-5.66 7.16-6.56 13.42-4.7 20.53 1.8-3.34 4.85-5.39 7.43-6.91l-3.22-13.69c-6.31 6.55-12.2 16.43-14.55 23.23z" fill="#D13816"/>
  <path d="m93.88 39.98c-4.14-2.05-6.16-2.56-10.89-1.27 4.14 1.27 3.75 3.9 7.44 4.35 2.52 0.4 4.16 0.2 5.48 0l-2.03-3.08z" fill="#7A0E0C"/>
  <path d="m115.9 119.9c-13.89-5.22-35.38-9.16-41.17-26.87-2.2-7.35-0.06-15.68 3.7-21.64-1.8 10.89 8.5 16.3 27.8 20.52 19.95 4.72 35.83 10 45.6 26.07 12.45 21.24 2.95 48.12-18.9 61.29-6.2 4.15-13.87 6.95-19.2 7.91 13-7.5 21.4-20.87 21.4-34.17 0-11.92-7.78-28.73-19.23-33.11z" fill="url(#paint2_linear_121_12182)"/>
  <path d="m129.3 145.7c-2.7 12.47-10.85 21.75-24.26 22.09-13.57 0.47-20.73-7.63-26.39-20.54-5.06-10.25-11.75-16.55-23.34-20.59 4.14 4.45 5.91 9.47 5.91 14.5-4.6-6.49-8.87-8.98-16.82-12.2 3.06 7.1 3.31 11.8 2.8 18.09-3.46-2.87-6.78-7.25-8.29-12.41-1.87 4.32-0.71 10.93 1.02 15.01-8.6-13.52-9.19-28.65-4.33-50.03 5.33 8.33 11.4 14.89 20.93 20.45 9.7 5.63 14.27 10.01 18.1 18.11-5.33-6.43-11.88-9.09-19.32-11.52 4.63 4.51 7.02 9.6 5.91 14.5-4.92-7.16-10.38-9.28-16.82-12.2 8.4 16.81 22.77 40.82 41.51 46.39 19.04 5.25 39.16-4.6 43.39-29.65z" fill="url(#paint3_linear_121_12182)"/>
  <path d="m139.7 123.7c-11.12-16.48-30.49-18.9-39.59-22.41-13.89-4.88-22.19-14.33-21.5-28.45-2.52 4.81-4.48 11.17-3.39 16.59 3.29 14.42 16.35 22.58 34.6 29.1 11.77 3.74 19.79 12.47 23.87 25.87 4.53 14.56-4.57 32.2-18.4 42.36 18.8-5.56 37.53-30.21 24.41-63.06z" fill="url(#paint4_linear_121_12182)"/>
  <path d="m60.41 69.08c-1.7 5.36-1.11 9.68 0.38 14.63 2.8-16.68 14.57-28.03 34.35-28.7-14.88-1.77-28.37 0.34-34.73 14.07z" fill="#E8CECD"/>
  <path d="m35.8 100.1c-2.18 8.33-0.88 17.77 6.73 29.31 2.52 3.67 3.74 7.89 4.58 15.52 0.51-6.16-1.09-11.58-2.96-16.36-6.86-8.53-9.04-18.41-8.35-28.47z" fill="#E8CECD"/>
  <defs>
    <linearGradient id="paint0_linear_121_12182" x1="145.9" x2="145.9" y1="53.57" y2="83.91" gradientUnits="userSpaceOnUse">
      <stop stop-color="#E5D5D5" offset="0"/>
      <stop stop-color="#CC3312" offset="1"/>
    </linearGradient>
    <linearGradient id="paint1_linear_121_12182" x1="77.88" x2="77.88" y1="13.16" y2="111.9" gradientUnits="userSpaceOnUse">
      <stop stop-color="#D13816" offset="0"/>
      <stop stop-color="#D44522" offset="1"/>
    </linearGradient>
    <linearGradient id="paint2_linear_121_12182" x1="113.9" x2="113.9" y1="71.42" y2="187.2" gradientUnits="userSpaceOnUse">
      <stop stop-color="#D13816" offset="0"/>
      <stop stop-color="#B72710" offset="1"/>
    </linearGradient>
    <linearGradient id="paint3_linear_121_12182" x1="75.02" x2="75.02" y1="99.58" y2="177.2" gradientUnits="userSpaceOnUse">
      <stop stop-color="#D93B1A" offset="0"/>
      <stop stop-color="#A81C0A" offset="1"/>
    </linearGradient>
    <linearGradient id="paint4_linear_121_12182" x1="106.5" x2="106.5" y1="72.85" y2="186.8" gradientUnits="userSpaceOnUse">
      <stop stop-color="#981A05" offset="0"/>
      <stop stop-color="#9B1B09" offset="1"/>
    </linearGradient>
  </defs>
</svg>