<?xml version="1.0" encoding="UTF-8" ?>
<!DOCTYPE svg PUBLIC "-//W3C//DTD SVG 1.1//EN" "http://www.w3.org/Graphics/SVG/1.1/DTD/svg11.dtd">
<svg viewBox="0 0 1024 1024" version="1.1" xmlns="http://www.w3.org/2000/svg">
<g id="#ef7458ff">
<path fill="#ee512c" opacity="1.00" d=" M 310.13 4.99 C 311.77 2.88 314.14 0.78 317.02 1.11 C 322.01 1.44 326.36 4.22 330.83 6.20 C 343.35 11.94 355.84 17.77 368.27 23.73 C 379.32 30.05 390.55 36.07 401.60 42.39 C 406.86 45.87 412.19 49.25 417.60 52.50 C 438.70 67.35 459.52 82.94 477.18 101.87 C 481.72 107.27 487.09 111.89 491.39 117.49 C 497.69 125.57 504.45 133.35 509.73 142.16 C 511.29 145.42 515.29 144.00 518.09 143.67 C 536.65 139.06 555.97 139.66 574.92 140.43 C 581.99 140.18 588.97 141.46 595.95 142.41 C 600.46 143.03 605.08 142.50 609.55 143.48 L 609.40 144.51 C 620.41 147.95 631.59 150.99 642.01 156.05 C 659.49 164.39 676.52 174.09 691.33 186.67 C 699.20 193.09 706.92 199.71 714.20 206.80 C 720.02 211.96 725.54 217.48 730.35 223.61 C 731.45 224.99 732.41 226.62 734.17 227.28 C 736.44 228.87 737.47 231.70 739.20 233.82 C 742.63 239.50 747.84 243.74 751.79 249.01 C 756.09 254.72 761.43 259.54 765.67 265.30 C 767.81 268.09 770.12 270.76 772.66 273.22 C 781.92 282.30 790.78 291.86 801.07 299.82 C 810.52 307.97 821.11 314.56 831.51 321.40 C 836.48 324.68 842.12 326.71 847.23 329.76 C 853.78 333.73 861.18 335.87 868.09 339.10 C 879.46 344.23 891.61 347.25 903.22 351.73 C 901.06 355.19 897.66 358.52 898.17 362.95 C 898.77 369.15 901.52 374.91 904.63 380.22 C 906.51 383.17 908.40 386.35 911.49 388.21 L 912.05 388.59 C 906.39 394.36 899.33 398.34 892.51 402.55 C 879.39 409.17 865.68 415.00 851.13 417.57 C 838.96 420.34 826.50 421.99 814.01 421.83 C 785.31 422.04 756.62 421.54 727.95 420.59 C 712.95 419.85 698.07 417.57 683.02 417.71 C 669.06 416.76 655.10 415.64 641.09 415.89 C 624.67 416.19 608.31 414.40 591.89 415.07 C 577.34 416.57 562.66 415.27 548.09 416.54 C 543.10 416.99 538.07 416.82 533.11 417.59 C 525.70 418.12 518.42 419.94 510.98 419.97 C 495.57 421.20 480.27 423.58 465.10 426.57 C 454.44 428.11 444.22 431.59 433.94 434.66 C 423.42 437.55 413.72 442.69 403.50 446.42 C 398.53 448.14 394.23 451.24 389.65 453.73 C 382.12 457.70 374.31 461.30 367.68 466.74 C 360.21 471.78 353.33 477.60 346.04 482.89 C 340.33 487.23 336.42 493.36 331.33 498.34 C 321.68 509.72 312.54 521.74 306.07 535.26 C 300.59 544.23 297.39 554.29 294.25 564.25 C 290.38 577.14 287.70 590.51 287.89 604.01 C 287.93 612.97 287.49 621.98 288.84 630.87 C 289.24 637.13 291.86 643.06 291.64 649.38 C 290.17 648.48 289.14 647.10 288.32 645.63 C 278.71 628.90 268.37 612.47 261.26 594.46 C 254.78 579.73 251.52 563.88 248.45 548.15 C 247.96 543.10 246.68 538.11 246.98 533.01 C 247.28 523.31 245.53 513.69 245.80 503.99 C 245.61 498.28 247.12 492.69 246.98 486.98 C 247.31 475.49 252.36 464.88 255.31 453.97 C 255.23 443.00 259.18 432.65 261.08 421.97 C 263.06 411.56 265.66 401.28 268.37 391.04 C 273.42 370.91 281.32 351.62 290.07 332.85 C 299.17 314.10 308.47 295.36 320.28 278.15 C 333.75 258.75 348.09 239.56 366.39 224.42 C 371.65 219.35 377.39 214.82 382.59 209.69 C 383.16 208.93 383.65 208.12 384.06 207.25 C 385.51 204.99 387.86 203.57 389.82 201.80 C 403.56 190.17 418.26 179.58 434.38 171.49 C 438.81 169.38 443.64 167.69 447.04 163.97 C 444.93 158.24 440.30 154.08 436.17 149.80 C 412.70 125.48 386.38 103.57 356.68 87.26 C 345.89 81.37 335.17 74.90 323.15 71.84 C 322.78 82.47 324.75 92.96 326.89 103.32 C 329.23 117.33 333.32 131.01 338.55 144.21 C 343.38 156.13 349.15 167.75 356.76 178.15 C 361.05 183.98 364.94 190.17 370.09 195.31 C 353.59 198.59 337.45 203.63 321.74 209.62 C 316.63 211.48 311.69 213.79 306.41 215.15 C 304.21 211.42 303.09 207.17 301.62 203.13 C 295.51 185.97 291.25 168.09 289.80 149.91 C 288.17 141.66 289.04 133.24 288.44 124.90 C 287.69 115.27 288.56 105.63 288.73 95.99 C 288.73 83.25 290.21 70.53 292.91 58.08 C 295.08 47.97 296.82 37.73 300.22 27.94 C 302.96 20.09 304.82 11.62 310.13 4.99 M 556.03 269.04 C 553.93 273.15 554.99 278.12 556.81 282.14 C 560.06 288.27 564.37 293.82 569.19 298.80 C 571.39 301.28 574.89 301.57 577.95 302.08 C 586.97 303.28 595.90 305.30 605.03 305.50 C 613.02 305.68 620.87 307.19 628.75 308.36 C 628.27 303.46 626.41 298.88 624.59 294.36 C 619.85 282.50 613.58 270.65 603.29 262.69 C 597.99 258.55 591.86 254.92 584.97 254.60 C 573.58 253.67 562.44 259.81 556.03 269.04 Z" />
<path fill="#ef7458" opacity="1.00" d=" M 569.08 490.68 C 583.33 488.99 597.69 488.26 612.03 488.12 C 624.68 488.87 637.51 488.84 649.89 491.94 C 659.57 493.85 669.10 496.48 678.44 499.67 C 683.98 501.60 690.00 502.62 694.79 506.23 C 710.73 511.13 725.48 519.38 739.16 528.86 C 754.96 539.73 770.14 551.69 783.35 565.66 C 799.06 582.03 812.39 600.61 823.62 620.30 C 829.91 633.60 836.62 646.81 841.18 660.83 C 843.83 672.96 848.47 684.67 849.50 697.12 C 849.95 702.15 852.22 706.89 851.94 712.00 C 851.54 720.01 853.20 727.92 853.05 735.92 C 853.79 746.65 851.50 757.27 851.93 767.99 C 852.37 774.43 850.16 780.60 849.28 786.92 C 847.34 799.16 843.48 810.96 839.86 822.78 C 836.62 831.26 834.03 839.98 830.24 848.24 C 826.84 855.93 822.84 863.34 818.64 870.63 C 813.25 879.67 806.71 887.96 800.70 896.59 C 788.91 911.07 776.05 924.64 762.74 937.73 C 757.42 943.13 751.65 948.08 745.53 952.55 C 740.29 956.28 735.66 960.87 729.91 963.87 C 722.18 969.38 714.32 974.75 705.67 978.74 C 695.84 984.52 685.56 989.54 675.02 993.86 C 669.39 995.46 664.59 999.35 658.71 1000.09 C 669.73 992.06 680.95 984.22 690.97 974.95 C 697.90 967.39 703.86 958.98 709.56 950.47 C 718.69 932.32 727.04 913.59 731.94 893.80 C 734.89 881.38 736.52 868.70 737.46 856.00 C 737.38 845.99 737.42 835.98 737.44 825.98 C 736.57 818.14 736.29 810.24 734.90 802.46 C 731.10 780.68 722.22 760.07 710.88 741.19 C 704.43 730.56 697.29 720.27 688.96 711.02 C 684.87 707.10 681.46 702.56 677.47 698.56 C 666.44 687.48 654.73 677.04 642.01 667.94 C 628.09 657.81 613.64 648.30 598.23 640.57 C 578.64 629.67 556.86 623.57 535.17 618.44 C 529.19 616.87 523.11 615.79 517.03 614.72 C 515.39 614.27 513.83 615.00 512.34 615.55 C 505.63 613.60 498.58 612.53 492.19 609.64 C 492.15 609.23 492.06 608.42 492.02 608.02 C 507.06 600.71 523.58 597.24 539.93 594.23 C 558.34 591.47 577.18 591.33 595.54 594.54 C 597.79 594.93 599.72 596.24 601.85 596.99 C 614.67 598.78 626.12 605.26 638.11 609.73 C 638.08 607.60 638.11 605.44 637.48 603.39 C 629.80 579.25 614.74 558.44 599.20 538.78 C 588.83 529.51 579.25 519.14 567.36 511.71 C 559.60 506.99 552.06 501.91 544.18 497.39 C 544.19 497.21 544.20 496.85 544.20 496.68 C 552.09 493.27 560.80 492.72 569.08 490.68 Z" />
</g>
<g id="#001b2cff">
<path fill="#001b2c" opacity="1.00" d=" M 750.29 22.23 C 761.94 17.50 773.06 10.17 785.85 9.18 C 790.84 42.83 791.74 77.30 786.08 110.93 C 784.10 126.13 779.03 140.68 774.05 155.10 C 767.44 172.04 760.05 188.80 749.98 203.99 C 745.90 210.11 742.26 216.75 736.30 221.30 C 734.09 222.56 733.53 224.89 734.17 227.28 C 732.41 226.62 731.45 224.99 730.35 223.61 C 725.54 217.48 720.02 211.96 714.20 206.80 C 706.92 199.71 699.20 193.09 691.33 186.67 C 676.52 174.09 659.49 164.39 642.01 156.05 C 631.59 150.99 620.41 147.95 609.40 144.51 L 609.55 143.48 C 611.43 138.74 614.59 134.66 617.68 130.66 C 624.01 122.71 630.54 114.93 637.25 107.30 C 645.06 99.12 653.00 91.05 661.16 83.21 C 668.06 77.09 675.25 71.30 682.54 65.65 C 703.49 48.81 726.56 34.78 750.29 22.23 Z" />
<path fill="#001b2c" opacity="1.00" d=" M 146.03 378.95 C 151.33 370.63 156.79 362.21 164.25 355.64 C 159.08 369.81 155.96 384.60 152.05 399.15 C 147.69 416.06 146.69 433.58 146.13 450.96 C 146.12 462.99 146.47 475.13 149.15 486.90 C 152.46 504.20 156.43 521.47 163.09 537.82 C 167.98 549.36 172.91 560.92 179.30 571.73 C 188.23 588.69 200.09 603.90 212.74 618.23 C 223.07 629.93 235.06 639.98 247.05 649.90 C 262.08 662.21 279.77 670.62 297.41 678.47 C 305.71 682.43 314.52 685.19 322.85 689.07 C 324.05 689.61 325.31 689.89 326.64 689.91 C 329.52 690.62 332.08 692.31 334.95 693.14 C 344.03 696.53 353.82 697.11 363.05 699.92 C 373.72 703.14 384.95 704.41 395.31 708.68 C 403.23 712.08 411.52 714.72 419.00 719.06 C 425.21 722.86 431.67 726.23 437.80 730.17 C 453.33 740.67 467.03 753.78 478.68 768.45 C 489.42 782.79 498.35 799.15 500.81 817.12 C 502.98 826.92 502.03 837.00 502.22 846.95 C 502.86 867.00 498.15 887.41 487.71 904.65 C 482.41 914.02 475.93 922.73 468.31 930.34 C 464.96 933.71 460.89 936.23 457.21 939.23 C 449.77 945.33 440.90 949.34 432.12 953.13 C 423.14 957.01 413.40 958.43 404.03 961.03 C 393.60 963.89 382.71 963.29 372.02 963.23 C 365.68 963.29 359.52 961.65 353.36 960.41 C 341.36 957.92 329.28 955.49 317.73 951.31 C 306.40 946.96 294.58 943.89 283.73 938.36 C 267.30 930.59 251.66 921.06 237.47 909.68 C 223.62 898.24 211.33 885.10 198.67 872.40 C 192.35 865.36 185.52 858.70 180.26 850.80 C 176.81 845.62 172.51 841.08 169.24 835.79 C 165.95 830.46 161.37 826.07 158.34 820.56 C 154.71 814.00 149.87 808.17 146.66 801.37 C 143.90 795.61 140.05 790.46 137.28 784.70 C 131.35 772.76 125.25 760.84 120.77 748.26 C 116.89 738.68 113.35 728.97 109.53 719.37 C 106.39 708.51 102.43 697.89 99.73 686.91 C 96.44 670.33 93.25 653.70 91.72 636.85 C 90.49 627.29 91.73 617.61 90.47 608.06 C 89.19 599.02 91.41 590.02 91.13 580.97 C 90.76 567.28 92.52 553.67 93.42 540.03 C 94.05 529.48 95.93 519.08 97.42 508.63 C 101.29 482.80 108.86 457.66 118.17 433.31 C 126.28 414.63 135.06 396.15 146.03 378.95 Z" />
</g>
<g id="#ae3224ff">
<path fill="#ae3224" opacity="1.00" d=" M 321.74 209.62 C 337.45 203.63 353.59 198.59 370.09 195.31 C 373.58 199.02 377.06 202.77 380.95 206.07 C 381.83 206.84 382.87 207.23 384.06 207.25 C 383.65 208.12 383.16 208.93 382.59 209.69 C 377.39 214.82 371.65 219.35 366.39 224.42 C 348.09 239.56 333.75 258.75 320.28 278.15 C 308.47 295.36 299.17 314.10 290.07 332.85 C 281.32 351.62 273.42 370.91 268.37 391.04 C 265.66 401.28 263.06 411.56 261.08 421.97 C 259.18 432.65 255.23 443.00 255.31 453.97 C 252.36 464.88 247.31 475.49 246.98 486.98 C 247.12 492.69 245.61 498.28 245.80 503.99 C 245.53 513.69 247.28 523.31 246.98 533.01 C 246.68 538.11 247.96 543.10 248.45 548.15 C 251.52 563.88 254.78 579.73 261.26 594.46 C 268.37 612.47 278.71 628.90 288.32 645.63 C 289.14 647.10 290.17 648.48 291.64 649.38 C 293.23 650.53 293.96 652.45 295.08 654.00 C 300.04 661.85 306.15 668.86 312.08 675.97 C 316.31 681.24 322.23 684.79 326.64 689.91 C 325.31 689.89 324.05 689.61 322.85 689.07 C 314.52 685.19 305.71 682.43 297.41 678.47 C 279.77 670.62 262.08 662.21 247.05 649.90 C 235.06 639.98 223.07 629.93 212.74 618.23 C 200.09 603.90 188.23 588.69 179.30 571.73 C 172.91 560.92 167.98 549.36 163.09 537.82 C 156.43 521.47 152.46 504.20 149.15 486.90 C 146.47 475.13 146.12 462.99 146.13 450.96 C 146.69 433.58 147.69 416.06 152.05 399.15 C 155.96 384.60 159.08 369.81 164.25 355.64 C 167.01 350.05 170.74 344.99 173.22 339.26 C 174.92 335.33 176.62 331.39 178.81 327.70 C 183.90 318.95 188.57 309.85 195.14 302.08 C 199.93 296.51 203.85 290.22 209.22 285.16 C 215.12 279.43 220.76 273.43 226.80 267.84 C 237.38 259.01 248.02 250.18 259.64 242.73 C 272.21 233.88 285.39 225.78 299.42 219.44 C 301.75 218.04 304.68 217.38 306.41 215.15 C 311.69 213.79 316.63 211.48 321.74 209.62 Z" />
<path fill="#ae3224" opacity="1.00" d=" M 903.22 351.73 C 912.72 355.23 922.94 356.83 932.62 359.95 C 931.02 365.90 926.94 370.61 923.29 375.39 C 919.69 379.96 915.77 384.27 911.49 388.21 C 908.40 386.35 906.51 383.17 904.63 380.22 C 901.52 374.91 898.77 369.15 898.17 362.95 C 897.66 358.52 901.06 355.19 903.22 351.73 Z" />
<path fill="#ae3224" opacity="1.00" d=" M 512.34 615.55 C 513.83 615.00 515.39 614.27 517.03 614.72 C 523.11 615.79 529.19 616.87 535.17 618.44 C 556.86 623.57 578.64 629.67 598.23 640.57 C 613.64 648.30 628.09 657.81 642.01 667.94 C 654.73 677.04 666.44 687.48 677.47 698.56 C 681.46 702.56 684.87 707.10 688.96 711.02 C 697.29 720.27 704.43 730.56 710.88 741.19 C 722.22 760.07 731.10 780.68 734.90 802.46 C 736.29 810.24 736.57 818.14 737.44 825.98 C 737.42 835.98 737.38 845.99 737.46 856.00 C 736.52 868.70 734.89 881.38 731.94 893.80 C 727.04 913.59 718.69 932.32 709.56 950.47 C 703.86 958.98 697.90 967.39 690.97 974.95 C 680.95 984.22 669.73 992.06 658.71 1000.09 C 654.44 1002.50 649.68 1003.76 644.99 1005.06 C 626.73 1011.17 608.00 1016.13 588.85 1018.48 C 584.91 1019.18 580.99 1020.14 576.97 1020.30 C 567.91 1020.86 559.03 1023.10 549.94 1023.26 C 539.63 1023.50 529.32 1023.53 519.00 1023.40 C 512.70 1023.47 506.82 1020.95 500.68 1019.91 C 500.76 1019.20 500.90 1017.78 500.97 1017.07 C 511.60 1012.76 522.08 1008.12 532.60 1003.58 C 552.33 994.07 570.70 981.67 586.73 966.74 C 592.28 961.29 597.85 955.84 603.12 950.12 C 613.33 937.32 622.66 923.79 630.44 909.37 C 634.70 901.05 637.15 891.99 640.31 883.23 C 644.53 871.89 646.16 859.83 648.05 847.94 C 652.52 811.36 649.67 773.14 634.83 739.07 C 631.85 732.50 629.54 725.58 625.71 719.43 C 621.02 711.76 616.81 703.80 611.68 696.41 C 604.75 687.36 597.78 678.33 589.95 670.02 C 571.99 650.89 551.05 634.37 527.76 622.19 C 522.76 619.67 517.38 618.00 512.34 615.55 Z" />
</g>
</svg>
